# xmcd CD database file
#
# Track frame offsets:
#	183
#	16458
#	31670
#	46445
#	56770
#	68528
#	80343
#	96645
#	110620
#	142308
#	155870
#	170658
#
# Disc length: 2477 seconds
#
# Revision: 0
# Processed by: cddbd v1.4PL0 Copyright (c) Steve Scherf et al.
# Submitted via: CDex 1.50beta8
#
DISCID=ab09ab0c
DTITLE=The Brunning Sunflower Band - Trackside Blues
DYEAR=1900
DGENRE=Blues
TTITLE0=Ride With Your Daddy Tonight
TTITLE1=Tube Train Blues
TTITLE2=Sunflower Shuffle
TTITLE3=Simple Simon
TTITLE4=I Met This Bird In Playboy
TTITLE5=Ah! Soul
TTITLE6=It Takes Time
TTITLE7=Baby You're The Real Thing
TTITLE8=If You Let Me Love You
TTITLE9=North Star
TTITLE10=Closing Hours
TTITLE11=Uranus (Take II)
EXTD=
EXTT0=
EXTT1=
EXTT2=
EXTT3=
EXTT4=
EXTT5=
EXTT6=
EXTT7=
EXTT8=
EXTT9=
EXTT10=
EXTT11=
PLAYORDER=
